# xmcd CD database file
#
# Track frame offsets:
#	150
#	12794
#	25907
#	38063
#	52180
#	64682
#	78429
#	91569
#	104339
#	115957
#	129238
#	140638
#	153084
#	162921
#	175259
#	187164
#	201397
#	212389
#	223960
#	237183
#	249645
#	261509
#	273860
#	287136
#	298535
#	312333
#	322883
#
# Disc length: 4441 seconds
#
# Revision: 0
# Processed by: cddbd v1.5.2PL0 Copyright (c) Steve Scherf et al.
# Submitted via: CDex 1.51
#
DISCID=8b11571b
DTITLE=Various Artist - Juke Joint Blues 2, CD B
DYEAR=2009
DGENRE=Blues
TTITLE0=Jimmy Rogers - Round About Boogie
TTITLE1=John Brim - Bus Driver
TTITLE2=Willie Lane - Prowlin' Ground Hog
TTITLE3=James Tisdom - Throw This Poor Dog A Bone
TTITLE4=Lewis Campbell - Call On The Phone, A
TTITLE5=Pinebluff Pete - Woman Acts Funny, A
TTITLE6=Haskell Sadler - Do Right Mind
TTITLE7=Lee Brown - Lowland Blues
TTITLE8=KJing Davis - Someday You'll Understand
TTITLE9=K.C. Douglas - Lonely Boy Blues
TTITLE10=J.D. Edwards - Hobo
TTITLE11=Sonny Boy Johnson - Swimming Pool Blues
TTITLE12=Jerry McCain - My Next Door Neighbor
TTITLE13=Jimmy McCracklin - My Baby's Last Goodbye
TTITLE14=Big Chenier - Please Try To Realize
TTITLE15=Sidney Maiden/ Everything Is Wrong
TTITLE16=Pete McKinley - Cryin' For My Baby
TTITLE17=Mr. Honey - Who May Your Regular Be
TTITLE18=Sammy Myers - Sleeping In The Ground
TTITLE19=Country Jim - I'll Take You Back Baby
TTITLE20=Buddy Lewis - You're Got Good Business
TTITLE21=Robert Lee Westmoreland - Good Looking Woman Blues
TTITLE22=Lee Brown - Round The World Boogie
TTITLE23=Louis Campbell - Natural Facts, The
TTITLE24=James Tisdom - '51 Blues
TTITLE25=Boogie Bill Webb - Bad Dog
TTITLE26=Papa Lightfoot - Jumpin' With Jarvis
EXTD=YEAR: 2009
EXTT0=
EXTT1=
EXTT2=
EXTT3=
EXTT4=
EXTT5=
EXTT6=
EXTT7=
EXTT8=
EXTT9=
EXTT10=
EXTT11=
EXTT12=
EXTT13=
EXTT14=
EXTT15=
EXTT16=
EXTT17=
EXTT18=
EXTT19=
EXTT20=
EXTT21=
EXTT22=
EXTT23=
EXTT24=
EXTT25=
EXTT26=
PLAYORDER=
